<?xml version="1.0" encoding="UTF-8" standalone="no"?>
<svg
   xmlns:dc="http://purl.org/dc/elements/1.1/"
   xmlns:cc="http://creativecommons.org/ns#"
   xmlns:rdf="http://www.w3.org/1999/02/22-rdf-syntax-ns#"
   xmlns:svg="http://www.w3.org/2000/svg"
   xmlns="http://www.w3.org/2000/svg"
   id="svg85"
   version="1.1"
   viewBox="0 0 264.58333 264.58334"
   height="1000"
   width="1000">
  <defs
     id="defs79" />
  <metadata
     id="metadata82">
    <rdf:RDF>
      <cc:Work
         rdf:about="">
        <dc:format>image/svg+xml</dc:format>
        <dc:type
           rdf:resource="http://purl.org/dc/dcmitype/StillImage" />
        <dc:title></dc:title>
      </cc:Work>
    </rdf:RDF>
  </metadata>
  <g
     transform="translate(0,-32.41665)"
     id="layer1">
    <path
       id="path34"
       d="m 83.527956,238.30388 -7.112665,8.34283 q -1.420112,1.6638 -3.269516,1.6638 -1.84539,0 -3.26953,-1.66894 L 3.6154958,168.92476 q -1.4241426,-1.66393 -1.4241426,-3.83426 0,-2.17001 1.4241426,-3.83416 L 69.876245,83.534398 q 1.420096,-1.668822 3.26953,-1.668822 1.84536,0 3.269516,1.668822 l 7.112665,8.338389 q 1.420111,1.668938 1.420111,3.834272 0,2.170011 -1.420111,3.838721 l -55.882548,65.54472 55.882548,65.54507 q 1.420111,1.66882 1.420111,3.83848 0,2.16569 -1.420111,3.83414 z M 167.56041,60.347371 114.52613,275.6648 q -0.56961,2.16569 -2.20638,3.25285 -1.63676,1.08389 -3.34179,0.41814 l -8.81359,-2.84078 q -1.849372,-0.66576 -2.776064,-2.58278 -0.922602,-1.91701 -0.352968,-4.08259 L 150.06956,54.507659 q 0.56961,-2.165567 2.2064,-3.25273 1.63687,-1.083893 3.34178,-0.418141 l 8.81359,2.840082 q 1.84938,0.665754 2.77619,2.582772 0.92252,1.917138 0.35289,4.082706 z m 93.41981,108.572949 -66.26086,77.72194 q -1.42001,1.66882 -3.26945,1.66882 -1.84537,0 -3.26944,-1.66882 l -7.11276,-8.33838 q -1.42003,-1.66883 -1.42003,-3.83417 0,-2.16999 1.42003,-3.8387 l 55.88253,-65.54483 -55.88253,-65.54496 q -1.42003,-1.66894 -1.42003,-3.838598 0,-2.165569 1.42003,-3.834158 l 7.11276,-8.342944 q 1.42002,-1.663798 3.26944,-1.663798 1.84536,0 3.26945,1.668822 l 66.26086,77.717616 q 1.42413,1.6638 1.42413,3.83415 0,2.17002 -1.42413,3.83416 z"
       style="fill:#ff6600;stroke-width:4.21931458" />
  </g>
</svg>
